<mxfile host="app.diagrams.net" agent="Mozilla/5.0 (Windows NT 10.0; Win64; x64) AppleWebKit/537.36 (KHTML, like Gecko) Chrome/133.0.0.0 Safari/537.36 Edg/133.0.0.0" version="26.0.16">
  <diagram name="Page-1" id="E4Sxrm94cGCosL7IYW4s">
    <mxGraphModel dx="1010" dy="539" grid="1" gridSize="10" guides="1" tooltips="1" connect="1" arrows="1" fold="1" page="1" pageScale="1" pageWidth="850" pageHeight="1100" math="0" shadow="0">
      <root>
        <mxCell id="0" />
        <mxCell id="1" parent="0" />
        <mxCell id="CbLxprS3W2kemAqDIkFk-70" value="frame" style="shape=umlFrame;whiteSpace=wrap;html=1;pointerEvents=0;swimlaneFillColor=default;" vertex="1" parent="1">
          <mxGeometry x="40" y="120" width="720" height="1620" as="geometry" />
        </mxCell>
        <mxCell id="CbLxprS3W2kemAqDIkFk-1" value=":Sinh viên" style="shape=umlLifeline;perimeter=lifelinePerimeter;whiteSpace=wrap;html=1;container=1;dropTarget=0;collapsible=0;recursiveResize=0;outlineConnect=0;portConstraint=eastwest;newEdgeStyle={&quot;curved&quot;:0,&quot;rounded&quot;:0};" vertex="1" parent="1">
          <mxGeometry x="120" y="140" width="100" height="1600" as="geometry" />
        </mxCell>
        <mxCell id="CbLxprS3W2kemAqDIkFk-5" value="" style="html=1;points=[[0,0,0,0,5],[0,1,0,0,-5],[1,0,0,0,5],[1,1,0,0,-5]];perimeter=orthogonalPerimeter;outlineConnect=0;targetShapes=umlLifeline;portConstraint=eastwest;newEdgeStyle={&quot;curved&quot;:0,&quot;rounded&quot;:0};" vertex="1" parent="CbLxprS3W2kemAqDIkFk-1">
          <mxGeometry x="45" y="80" width="10" height="1480" as="geometry" />
        </mxCell>
        <mxCell id="CbLxprS3W2kemAqDIkFk-2" value=":FacePlus&lt;span style=&quot;color: rgba(0, 0, 0, 0); font-family: monospace; font-size: 0px; text-align: start; text-wrap-mode: nowrap;&quot;&gt;%3CmxGraphModel%3E%3Croot%3E%3CmxCell%20id%3D%220%22%2F%3E%3CmxCell%20id%3D%221%22%20parent%3D%220%22%2F%3E%3CmxCell%20id%3D%222%22%20value%3D%22%3ASinh%20vi%C3%AAn%22%20style%3D%22shape%3DumlLifeline%3Bperimeter%3DlifelinePerimeter%3BwhiteSpace%3Dwrap%3Bhtml%3D1%3Bcontainer%3D1%3BdropTarget%3D0%3Bcollapsible%3D0%3BrecursiveResize%3D0%3BoutlineConnect%3D0%3BportConstraint%3Deastwest%3BnewEdgeStyle%3D%7B%26quot%3Bcurved%26quot%3B%3A0%2C%26quot%3Brounded%26quot%3B%3A0%7D%3B%22%20vertex%3D%221%22%20parent%3D%221%22%3E%3CmxGeometry%20x%3D%22110%22%20y%3D%22140%22%20width%3D%22100%22%20height%3D%22300%22%20as%3D%22geometry%22%2F%3E%3C%2FmxCell%3E%3C%2Froot%3E%3C%2FmxGraphModel%3E&lt;/span&gt;" style="shape=umlLifeline;perimeter=lifelinePerimeter;whiteSpace=wrap;html=1;container=1;dropTarget=0;collapsible=0;recursiveResize=0;outlineConnect=0;portConstraint=eastwest;newEdgeStyle={&quot;curved&quot;:0,&quot;rounded&quot;:0};" vertex="1" parent="1">
          <mxGeometry x="360" y="140" width="100" height="300" as="geometry" />
        </mxCell>
        <mxCell id="CbLxprS3W2kemAqDIkFk-3" value=":FacePlus&lt;span style=&quot;color: rgba(0, 0, 0, 0); font-family: monospace; font-size: 0px; text-align: start; text-wrap-mode: nowrap;&quot;&gt;%3CmxGraphModel%3E%3Croot%3E%3CmxCell%20id%3D%220%22%2F%3E%3CmxCell%20id%3D%221%22%20parent%3D%220%22%2F%3E%3CmxCell%20id%3D%222%22%20value%3D%22%3ASinh%20vi%C3%AAn%22%20style%3D%22shape%3DumlLifeline%3Bperimeter%3DlifelinePerimeter%3BwhiteSpace%3Dwrap%3Bhtml%3D1%3Bcontainer%3D1%3BdropTarget%3D0%3Bcollapsible%3D0%3BrecursiveResize%3D0%3BoutlineConnect%3D0%3BportConstraint%3Deastwest%3BnewEdgeStyle%3D%7B%26quot%3Bcurved%26quot%3B%3A0%2C%26quot%3Brounded%26quot%3B%3A0%7D%3B%22%20vertex%3D%221%22%20parent%3D%221%22%3E%3CmxGeometry%20x%3D%22110%22%20y%3D%22140%22%20width%3D%22100%22%20height%3D%22300%22%20as%3D%22geometry%22%2F%3E%3C%2FmxCell%3E%3C%2Froot%3E%3C%2FmxGraphModel%3E&lt;/span&gt;" style="shape=umlLifeline;perimeter=lifelinePerimeter;whiteSpace=wrap;html=1;container=1;dropTarget=0;collapsible=0;recursiveResize=0;outlineConnect=0;portConstraint=eastwest;newEdgeStyle={&quot;curved&quot;:0,&quot;rounded&quot;:0};" vertex="1" parent="1">
          <mxGeometry x="360" y="140" width="100" height="1600" as="geometry" />
        </mxCell>
        <mxCell id="CbLxprS3W2kemAqDIkFk-6" value="" style="html=1;points=[[0,0,0,0,5],[0,1,0,0,-5],[1,0,0,0,5],[1,1,0,0,-5]];perimeter=orthogonalPerimeter;outlineConnect=0;targetShapes=umlLifeline;portConstraint=eastwest;newEdgeStyle={&quot;curved&quot;:0,&quot;rounded&quot;:0};" vertex="1" parent="CbLxprS3W2kemAqDIkFk-3">
          <mxGeometry x="45" y="80" width="10" height="40" as="geometry" />
        </mxCell>
        <mxCell id="CbLxprS3W2kemAqDIkFk-10" value="" style="html=1;points=[[0,0,0,0,5],[0,1,0,0,-5],[1,0,0,0,5],[1,1,0,0,-5]];perimeter=orthogonalPerimeter;outlineConnect=0;targetShapes=umlLifeline;portConstraint=eastwest;newEdgeStyle={&quot;curved&quot;:0,&quot;rounded&quot;:0};" vertex="1" parent="CbLxprS3W2kemAqDIkFk-3">
          <mxGeometry x="45" y="160" width="10" height="40" as="geometry" />
        </mxCell>
        <mxCell id="CbLxprS3W2kemAqDIkFk-4" value=":Hệ thống AI" style="shape=umlLifeline;perimeter=lifelinePerimeter;whiteSpace=wrap;html=1;container=1;dropTarget=0;collapsible=0;recursiveResize=0;outlineConnect=0;portConstraint=eastwest;newEdgeStyle={&quot;curved&quot;:0,&quot;rounded&quot;:0};" vertex="1" parent="1">
          <mxGeometry x="600" y="140" width="100" height="1600" as="geometry" />
        </mxCell>
        <mxCell id="CbLxprS3W2kemAqDIkFk-13" value="" style="html=1;points=[[0,0,0,0,5],[0,1,0,0,-5],[1,0,0,0,5],[1,1,0,0,-5]];perimeter=orthogonalPerimeter;outlineConnect=0;targetShapes=umlLifeline;portConstraint=eastwest;newEdgeStyle={&quot;curved&quot;:0,&quot;rounded&quot;:0};" vertex="1" parent="CbLxprS3W2kemAqDIkFk-4">
          <mxGeometry x="45" y="160" width="10" height="80" as="geometry" />
        </mxCell>
        <mxCell id="CbLxprS3W2kemAqDIkFk-8" value="4.1. Chọn chức năng điểm danh khuôn mặt" style="html=1;verticalAlign=bottom;endArrow=block;curved=0;rounded=0;" edge="1" parent="1" target="CbLxprS3W2kemAqDIkFk-6">
          <mxGeometry width="80" relative="1" as="geometry">
            <mxPoint x="170" y="220" as="sourcePoint" />
            <mxPoint x="400" y="220" as="targetPoint" />
          </mxGeometry>
        </mxCell>
        <mxCell id="CbLxprS3W2kemAqDIkFk-9" value="4.1. Hiện giao diện điểm danh" style="html=1;verticalAlign=bottom;endArrow=open;dashed=1;endSize=8;curved=0;rounded=0;" edge="1" parent="1" source="CbLxprS3W2kemAqDIkFk-6">
          <mxGeometry relative="1" as="geometry">
            <mxPoint x="254" y="260" as="sourcePoint" />
            <mxPoint x="174" y="260" as="targetPoint" />
          </mxGeometry>
        </mxCell>
        <mxCell id="CbLxprS3W2kemAqDIkFk-12" value="4.2. Scan ảnh khuôn mặt" style="html=1;verticalAlign=bottom;endArrow=block;curved=0;rounded=0;" edge="1" parent="1" target="CbLxprS3W2kemAqDIkFk-10">
          <mxGeometry width="80" relative="1" as="geometry">
            <mxPoint x="175" y="300" as="sourcePoint" />
            <mxPoint x="400" y="300" as="targetPoint" />
          </mxGeometry>
        </mxCell>
        <mxCell id="CbLxprS3W2kemAqDIkFk-14" value="4.3. Gửi yêu cầu xác nhận" style="html=1;verticalAlign=bottom;endArrow=block;curved=0;rounded=0;" edge="1" parent="1">
          <mxGeometry width="80" relative="1" as="geometry">
            <mxPoint x="415" y="340" as="sourcePoint" />
            <mxPoint x="645" y="340" as="targetPoint" />
          </mxGeometry>
        </mxCell>
        <mxCell id="CbLxprS3W2kemAqDIkFk-16" value="" style="html=1;verticalAlign=bottom;endArrow=block;curved=0;rounded=0;" edge="1" parent="1">
          <mxGeometry width="80" relative="1" as="geometry">
            <mxPoint x="655" y="350" as="sourcePoint" />
            <mxPoint x="655" y="369.99999999999994" as="targetPoint" />
            <Array as="points">
              <mxPoint x="680" y="350" />
              <mxPoint x="680" y="370" />
            </Array>
          </mxGeometry>
        </mxCell>
        <mxCell id="CbLxprS3W2kemAqDIkFk-17" value="Nhận diện" style="edgeLabel;html=1;align=center;verticalAlign=middle;resizable=0;points=[];" vertex="1" connectable="0" parent="CbLxprS3W2kemAqDIkFk-16">
          <mxGeometry x="0.0774" y="-1" relative="1" as="geometry">
            <mxPoint x="30" y="-2" as="offset" />
          </mxGeometry>
        </mxCell>
        <mxCell id="CbLxprS3W2kemAqDIkFk-18" value="&lt;b&gt;opt&lt;/b&gt;" style="shape=umlFrame;whiteSpace=wrap;html=1;pointerEvents=0;width=110;height=30;" vertex="1" parent="1">
          <mxGeometry x="90" y="400" width="600" height="510" as="geometry" />
        </mxCell>
        <mxCell id="CbLxprS3W2kemAqDIkFk-20" value="" style="html=1;points=[[0,0,0,0,5],[0,1,0,0,-5],[1,0,0,0,5],[1,1,0,0,-5]];perimeter=orthogonalPerimeter;outlineConnect=0;targetShapes=umlLifeline;portConstraint=eastwest;newEdgeStyle={&quot;curved&quot;:0,&quot;rounded&quot;:0};" vertex="1" parent="1">
          <mxGeometry x="405" y="440" width="10" height="60" as="geometry" />
        </mxCell>
        <mxCell id="CbLxprS3W2kemAqDIkFk-21" value="4.3.2. Kiểm tra không hợp lệ" style="html=1;verticalAlign=bottom;endArrow=none;curved=0;rounded=0;startArrow=block;startFill=1;" edge="1" parent="1">
          <mxGeometry width="80" relative="1" as="geometry">
            <mxPoint x="415" y="440" as="sourcePoint" />
            <mxPoint x="645" y="440" as="targetPoint" />
          </mxGeometry>
        </mxCell>
        <mxCell id="CbLxprS3W2kemAqDIkFk-22" value="" style="html=1;verticalAlign=bottom;endArrow=block;curved=0;rounded=0;" edge="1" parent="1">
          <mxGeometry width="80" relative="1" as="geometry">
            <mxPoint x="415" y="460" as="sourcePoint" />
            <mxPoint x="415" y="479.99999999999994" as="targetPoint" />
            <Array as="points">
              <mxPoint x="440" y="460" />
              <mxPoint x="440" y="480" />
            </Array>
          </mxGeometry>
        </mxCell>
        <mxCell id="CbLxprS3W2kemAqDIkFk-23" value="Quay lại 4.2" style="edgeLabel;html=1;align=center;verticalAlign=middle;resizable=0;points=[];" vertex="1" connectable="0" parent="CbLxprS3W2kemAqDIkFk-22">
          <mxGeometry x="0.0774" y="-1" relative="1" as="geometry">
            <mxPoint x="37" y="-3" as="offset" />
          </mxGeometry>
        </mxCell>
        <mxCell id="CbLxprS3W2kemAqDIkFk-24" value="4.3.2. Thông báo không nhận diện được" style="html=1;verticalAlign=bottom;endArrow=none;curved=0;rounded=0;startArrow=block;startFill=1;" edge="1" parent="1">
          <mxGeometry width="80" relative="1" as="geometry">
            <mxPoint x="175" y="500" as="sourcePoint" />
            <mxPoint x="405" y="500" as="targetPoint" />
          </mxGeometry>
        </mxCell>
        <mxCell id="CbLxprS3W2kemAqDIkFk-25" value="" style="html=1;verticalAlign=bottom;endArrow=none;dashed=1;endSize=8;curved=0;rounded=0;exitX=1;exitY=0.499;exitDx=0;exitDy=0;exitPerimeter=0;startFill=0;" edge="1" parent="1">
          <mxGeometry relative="1" as="geometry">
            <mxPoint x="690" y="520.73" as="sourcePoint" />
            <mxPoint x="90" y="521" as="targetPoint" />
          </mxGeometry>
        </mxCell>
        <mxCell id="CbLxprS3W2kemAqDIkFk-26" value="" style="html=1;points=[[0,0,0,0,5],[0,1,0,0,-5],[1,0,0,0,5],[1,1,0,0,-5]];perimeter=orthogonalPerimeter;outlineConnect=0;targetShapes=umlLifeline;portConstraint=eastwest;newEdgeStyle={&quot;curved&quot;:0,&quot;rounded&quot;:0};" vertex="1" parent="1">
          <mxGeometry x="405" y="560" width="10" height="60" as="geometry" />
        </mxCell>
        <mxCell id="CbLxprS3W2kemAqDIkFk-27" value="" style="html=1;points=[[0,0,0,0,5],[0,1,0,0,-5],[1,0,0,0,5],[1,1,0,0,-5]];perimeter=orthogonalPerimeter;outlineConnect=0;targetShapes=umlLifeline;portConstraint=eastwest;newEdgeStyle={&quot;curved&quot;:0,&quot;rounded&quot;:0};" vertex="1" parent="1">
          <mxGeometry x="645" y="440" width="10" height="60" as="geometry" />
        </mxCell>
        <mxCell id="CbLxprS3W2kemAqDIkFk-28" value="" style="html=1;points=[[0,0,0,0,5],[0,1,0,0,-5],[1,0,0,0,5],[1,1,0,0,-5]];perimeter=orthogonalPerimeter;outlineConnect=0;targetShapes=umlLifeline;portConstraint=eastwest;newEdgeStyle={&quot;curved&quot;:0,&quot;rounded&quot;:0};" vertex="1" parent="1">
          <mxGeometry x="645" y="560" width="10" height="60" as="geometry" />
        </mxCell>
        <mxCell id="CbLxprS3W2kemAqDIkFk-31" value="4.4. Phản hồi kết quả" style="html=1;verticalAlign=bottom;endArrow=none;curved=0;rounded=0;startArrow=block;startFill=1;" edge="1" parent="1">
          <mxGeometry width="80" relative="1" as="geometry">
            <mxPoint x="415" y="560" as="sourcePoint" />
            <mxPoint x="645" y="560" as="targetPoint" />
          </mxGeometry>
        </mxCell>
        <mxCell id="CbLxprS3W2kemAqDIkFk-32" value="&lt;b&gt;opt&lt;/b&gt;" style="shape=umlFrame;whiteSpace=wrap;html=1;pointerEvents=0;width=80;height=30;" vertex="1" parent="1">
          <mxGeometry x="120" y="630" width="550" height="250" as="geometry" />
        </mxCell>
        <mxCell id="CbLxprS3W2kemAqDIkFk-33" value="" style="html=1;points=[[0,0,0,0,5],[0,1,0,0,-5],[1,0,0,0,5],[1,1,0,0,-5]];perimeter=orthogonalPerimeter;outlineConnect=0;targetShapes=umlLifeline;portConstraint=eastwest;newEdgeStyle={&quot;curved&quot;:0,&quot;rounded&quot;:0};" vertex="1" parent="1">
          <mxGeometry x="405" y="680" width="10" height="60" as="geometry" />
        </mxCell>
        <mxCell id="CbLxprS3W2kemAqDIkFk-34" value="" style="html=1;points=[[0,0,0,0,5],[0,1,0,0,-5],[1,0,0,0,5],[1,1,0,0,-5]];perimeter=orthogonalPerimeter;outlineConnect=0;targetShapes=umlLifeline;portConstraint=eastwest;newEdgeStyle={&quot;curved&quot;:0,&quot;rounded&quot;:0};" vertex="1" parent="1">
          <mxGeometry x="645" y="680" width="10" height="60" as="geometry" />
        </mxCell>
        <mxCell id="CbLxprS3W2kemAqDIkFk-35" value="4.4.2 Phản hồi vị trí không hợp lệ" style="html=1;verticalAlign=bottom;endArrow=none;curved=0;rounded=0;startArrow=block;startFill=1;" edge="1" parent="1">
          <mxGeometry width="80" relative="1" as="geometry">
            <mxPoint x="415" y="680" as="sourcePoint" />
            <mxPoint x="645" y="680" as="targetPoint" />
          </mxGeometry>
        </mxCell>
        <mxCell id="CbLxprS3W2kemAqDIkFk-36" value="" style="html=1;verticalAlign=bottom;endArrow=block;curved=0;rounded=0;" edge="1" parent="1">
          <mxGeometry width="80" relative="1" as="geometry">
            <mxPoint x="415" y="700" as="sourcePoint" />
            <mxPoint x="415" y="720" as="targetPoint" />
            <Array as="points">
              <mxPoint x="440" y="700" />
              <mxPoint x="440" y="720" />
            </Array>
          </mxGeometry>
        </mxCell>
        <mxCell id="CbLxprS3W2kemAqDIkFk-37" value="Quay lại 4.2" style="edgeLabel;html=1;align=center;verticalAlign=middle;resizable=0;points=[];" vertex="1" connectable="0" parent="CbLxprS3W2kemAqDIkFk-36">
          <mxGeometry x="0.0774" y="-1" relative="1" as="geometry">
            <mxPoint x="37" y="-3" as="offset" />
          </mxGeometry>
        </mxCell>
        <mxCell id="CbLxprS3W2kemAqDIkFk-38" value="4.4.2. Thông báo vị trí không hợp lệ&amp;nbsp;" style="html=1;verticalAlign=bottom;endArrow=none;curved=0;rounded=0;startArrow=block;startFill=1;" edge="1" parent="1">
          <mxGeometry width="80" relative="1" as="geometry">
            <mxPoint x="175" y="740" as="sourcePoint" />
            <mxPoint x="405" y="740" as="targetPoint" />
          </mxGeometry>
        </mxCell>
        <mxCell id="CbLxprS3W2kemAqDIkFk-39" value="" style="html=1;verticalAlign=bottom;endArrow=none;dashed=1;endSize=8;curved=0;rounded=0;exitX=0.996;exitY=0.524;exitDx=0;exitDy=0;exitPerimeter=0;startFill=0;" edge="1" parent="1" source="CbLxprS3W2kemAqDIkFk-32">
          <mxGeometry relative="1" as="geometry">
            <mxPoint x="720" y="760" as="sourcePoint" />
            <mxPoint x="120" y="760.27" as="targetPoint" />
          </mxGeometry>
        </mxCell>
        <mxCell id="CbLxprS3W2kemAqDIkFk-40" value="" style="html=1;points=[[0,0,0,0,5],[0,1,0,0,-5],[1,0,0,0,5],[1,1,0,0,-5]];perimeter=orthogonalPerimeter;outlineConnect=0;targetShapes=umlLifeline;portConstraint=eastwest;newEdgeStyle={&quot;curved&quot;:0,&quot;rounded&quot;:0};" vertex="1" parent="1">
          <mxGeometry x="405" y="800" width="10" height="60" as="geometry" />
        </mxCell>
        <mxCell id="CbLxprS3W2kemAqDIkFk-41" value="" style="html=1;points=[[0,0,0,0,5],[0,1,0,0,-5],[1,0,0,0,5],[1,1,0,0,-5]];perimeter=orthogonalPerimeter;outlineConnect=0;targetShapes=umlLifeline;portConstraint=eastwest;newEdgeStyle={&quot;curved&quot;:0,&quot;rounded&quot;:0};" vertex="1" parent="1">
          <mxGeometry x="645" y="800" width="10" height="60" as="geometry" />
        </mxCell>
        <mxCell id="CbLxprS3W2kemAqDIkFk-42" value="4.5. Phản hồi vị trí hợp lệ" style="html=1;verticalAlign=bottom;endArrow=none;curved=0;rounded=0;startArrow=block;startFill=1;" edge="1" parent="1">
          <mxGeometry width="80" relative="1" as="geometry">
            <mxPoint x="415" y="800" as="sourcePoint" />
            <mxPoint x="645" y="800" as="targetPoint" />
          </mxGeometry>
        </mxCell>
        <mxCell id="CbLxprS3W2kemAqDIkFk-43" value="4.4. TB xác thực khuôn mặt thành công" style="html=1;verticalAlign=bottom;endArrow=none;curved=0;rounded=0;startArrow=block;startFill=1;" edge="1" parent="1">
          <mxGeometry width="80" relative="1" as="geometry">
            <mxPoint x="175" y="619.31" as="sourcePoint" />
            <mxPoint x="405" y="619.31" as="targetPoint" />
          </mxGeometry>
        </mxCell>
        <mxCell id="CbLxprS3W2kemAqDIkFk-44" value="4.5. TB xác thực vị trí thành công" style="html=1;verticalAlign=bottom;endArrow=none;curved=0;rounded=0;startArrow=block;startFill=1;" edge="1" parent="1">
          <mxGeometry width="80" relative="1" as="geometry">
            <mxPoint x="175" y="859.4699999999999" as="sourcePoint" />
            <mxPoint x="405" y="859.4699999999999" as="targetPoint" />
          </mxGeometry>
        </mxCell>
        <mxCell id="CbLxprS3W2kemAqDIkFk-45" value="" style="html=1;points=[[0,0,0,0,5],[0,1,0,0,-5],[1,0,0,0,5],[1,1,0,0,-5]];perimeter=orthogonalPerimeter;outlineConnect=0;targetShapes=umlLifeline;portConstraint=eastwest;newEdgeStyle={&quot;curved&quot;:0,&quot;rounded&quot;:0};" vertex="1" parent="1">
          <mxGeometry x="405" y="950" width="10" height="60" as="geometry" />
        </mxCell>
        <mxCell id="CbLxprS3W2kemAqDIkFk-46" value="" style="html=1;verticalAlign=bottom;endArrow=block;curved=0;rounded=0;" edge="1" parent="1">
          <mxGeometry width="80" relative="1" as="geometry">
            <mxPoint x="415" y="970" as="sourcePoint" />
            <mxPoint x="415" y="990" as="targetPoint" />
            <Array as="points">
              <mxPoint x="440" y="970" />
              <mxPoint x="440" y="990" />
            </Array>
          </mxGeometry>
        </mxCell>
        <mxCell id="CbLxprS3W2kemAqDIkFk-47" value="4.6. Ghi nhận điểm danh" style="edgeLabel;html=1;align=center;verticalAlign=middle;resizable=0;points=[];" vertex="1" connectable="0" parent="CbLxprS3W2kemAqDIkFk-46">
          <mxGeometry x="0.0774" y="-1" relative="1" as="geometry">
            <mxPoint x="68" y="-3" as="offset" />
          </mxGeometry>
        </mxCell>
        <mxCell id="CbLxprS3W2kemAqDIkFk-48" value="4.7. Gửi TB điểm danh thành công" style="html=1;verticalAlign=bottom;endArrow=none;curved=0;rounded=0;startArrow=block;startFill=1;" edge="1" parent="1">
          <mxGeometry width="80" relative="1" as="geometry">
            <mxPoint x="175" y="1009.9999999999999" as="sourcePoint" />
            <mxPoint x="405" y="1009.9999999999999" as="targetPoint" />
          </mxGeometry>
        </mxCell>
        <mxCell id="CbLxprS3W2kemAqDIkFk-49" value="&lt;b&gt;opt&lt;/b&gt;" style="shape=umlFrame;whiteSpace=wrap;html=1;pointerEvents=0;width=85;height=30;" vertex="1" parent="1">
          <mxGeometry x="115" y="1040" width="560" height="130" as="geometry" />
        </mxCell>
        <mxCell id="CbLxprS3W2kemAqDIkFk-50" value="" style="html=1;points=[[0,0,0,0,5],[0,1,0,0,-5],[1,0,0,0,5],[1,1,0,0,-5]];perimeter=orthogonalPerimeter;outlineConnect=0;targetShapes=umlLifeline;portConstraint=eastwest;newEdgeStyle={&quot;curved&quot;:0,&quot;rounded&quot;:0};" vertex="1" parent="1">
          <mxGeometry x="405" y="1080" width="10" height="50" as="geometry" />
        </mxCell>
        <mxCell id="CbLxprS3W2kemAqDIkFk-51" value="" style="html=1;points=[[0,0,0,0,5],[0,1,0,0,-5],[1,0,0,0,5],[1,1,0,0,-5]];perimeter=orthogonalPerimeter;outlineConnect=0;targetShapes=umlLifeline;portConstraint=eastwest;newEdgeStyle={&quot;curved&quot;:0,&quot;rounded&quot;:0};" vertex="1" parent="1">
          <mxGeometry x="645" y="1080" width="10" height="50" as="geometry" />
        </mxCell>
        <mxCell id="CbLxprS3W2kemAqDIkFk-52" value="Lỗi hệ thống AI" style="html=1;verticalAlign=bottom;endArrow=none;curved=0;rounded=0;startArrow=block;startFill=1;" edge="1" parent="1">
          <mxGeometry width="80" relative="1" as="geometry">
            <mxPoint x="415" y="1080" as="sourcePoint" />
            <mxPoint x="645" y="1080" as="targetPoint" />
          </mxGeometry>
        </mxCell>
        <mxCell id="CbLxprS3W2kemAqDIkFk-54" value="Thông báo lỗi hệ thống AI" style="html=1;verticalAlign=bottom;endArrow=none;curved=0;rounded=0;startArrow=block;startFill=1;" edge="1" parent="1">
          <mxGeometry width="80" relative="1" as="geometry">
            <mxPoint x="175" y="1130" as="sourcePoint" />
            <mxPoint x="405" y="1130" as="targetPoint" />
          </mxGeometry>
        </mxCell>
        <mxCell id="CbLxprS3W2kemAqDIkFk-55" value="&lt;b&gt;opt&lt;/b&gt;" style="shape=umlFrame;whiteSpace=wrap;html=1;pointerEvents=0;width=85;height=30;" vertex="1" parent="1">
          <mxGeometry x="115" y="1210" width="560" height="130" as="geometry" />
        </mxCell>
        <mxCell id="CbLxprS3W2kemAqDIkFk-56" value="" style="html=1;points=[[0,0,0,0,5],[0,1,0,0,-5],[1,0,0,0,5],[1,1,0,0,-5]];perimeter=orthogonalPerimeter;outlineConnect=0;targetShapes=umlLifeline;portConstraint=eastwest;newEdgeStyle={&quot;curved&quot;:0,&quot;rounded&quot;:0};" vertex="1" parent="1">
          <mxGeometry x="405" y="1250" width="10" height="50" as="geometry" />
        </mxCell>
        <mxCell id="CbLxprS3W2kemAqDIkFk-57" value="Thông báo không truy cập được camera" style="html=1;verticalAlign=bottom;endArrow=none;curved=0;rounded=0;startArrow=block;startFill=1;" edge="1" parent="1">
          <mxGeometry width="80" relative="1" as="geometry">
            <mxPoint x="175" y="1300" as="sourcePoint" />
            <mxPoint x="405" y="1300" as="targetPoint" />
          </mxGeometry>
        </mxCell>
        <mxCell id="CbLxprS3W2kemAqDIkFk-58" value="&lt;b&gt;opt&lt;/b&gt;" style="shape=umlFrame;whiteSpace=wrap;html=1;pointerEvents=0;width=85;height=30;" vertex="1" parent="1">
          <mxGeometry x="115" y="1380" width="560" height="130" as="geometry" />
        </mxCell>
        <mxCell id="CbLxprS3W2kemAqDIkFk-59" value="" style="html=1;points=[[0,0,0,0,5],[0,1,0,0,-5],[1,0,0,0,5],[1,1,0,0,-5]];perimeter=orthogonalPerimeter;outlineConnect=0;targetShapes=umlLifeline;portConstraint=eastwest;newEdgeStyle={&quot;curved&quot;:0,&quot;rounded&quot;:0};" vertex="1" parent="1">
          <mxGeometry x="405" y="1420" width="10" height="50" as="geometry" />
        </mxCell>
        <mxCell id="CbLxprS3W2kemAqDIkFk-60" value="Thông báo lỗi upload ảnh" style="html=1;verticalAlign=bottom;endArrow=none;curved=0;rounded=0;startArrow=block;startFill=1;" edge="1" parent="1">
          <mxGeometry width="80" relative="1" as="geometry">
            <mxPoint x="175" y="1470" as="sourcePoint" />
            <mxPoint x="405" y="1470" as="targetPoint" />
          </mxGeometry>
        </mxCell>
        <mxCell id="CbLxprS3W2kemAqDIkFk-61" value="&lt;b&gt;opt&lt;/b&gt;" style="shape=umlFrame;whiteSpace=wrap;html=1;pointerEvents=0;width=85;height=30;" vertex="1" parent="1">
          <mxGeometry x="115" y="1552" width="560" height="130" as="geometry" />
        </mxCell>
        <mxCell id="CbLxprS3W2kemAqDIkFk-62" value="" style="html=1;points=[[0,0,0,0,5],[0,1,0,0,-5],[1,0,0,0,5],[1,1,0,0,-5]];perimeter=orthogonalPerimeter;outlineConnect=0;targetShapes=umlLifeline;portConstraint=eastwest;newEdgeStyle={&quot;curved&quot;:0,&quot;rounded&quot;:0};" vertex="1" parent="1">
          <mxGeometry x="405" y="1592" width="10" height="50" as="geometry" />
        </mxCell>
        <mxCell id="CbLxprS3W2kemAqDIkFk-63" value="Thông báo không truy cập được GPS" style="html=1;verticalAlign=bottom;endArrow=none;curved=0;rounded=0;startArrow=block;startFill=1;" edge="1" parent="1">
          <mxGeometry width="80" relative="1" as="geometry">
            <mxPoint x="175" y="1642" as="sourcePoint" />
            <mxPoint x="405" y="1642" as="targetPoint" />
          </mxGeometry>
        </mxCell>
        <mxCell id="CbLxprS3W2kemAqDIkFk-64" value="&lt;span style=&quot;font-weight: normal;&quot;&gt;&lt;font style=&quot;font-size: 11px;&quot;&gt;Kiểm tra khuôn mặt không hợp lệ&lt;/font&gt;&lt;/span&gt;" style="text;html=1;align=left;verticalAlign=middle;resizable=0;points=[];autosize=1;strokeColor=none;fillColor=none;fontStyle=1" vertex="1" parent="1">
          <mxGeometry x="205" y="400" width="190" height="30" as="geometry" />
        </mxCell>
        <mxCell id="CbLxprS3W2kemAqDIkFk-66" value="&lt;span style=&quot;font-weight: normal;&quot;&gt;&lt;font style=&quot;font-size: 11px;&quot;&gt;Kiểm tra khuôn mặt hợp lệ&lt;/font&gt;&lt;/span&gt;" style="text;html=1;align=left;verticalAlign=middle;resizable=0;points=[];autosize=1;strokeColor=none;fillColor=none;fontStyle=1" vertex="1" parent="1">
          <mxGeometry x="205" y="520" width="150" height="30" as="geometry" />
        </mxCell>
        <mxCell id="CbLxprS3W2kemAqDIkFk-67" value="&lt;span style=&quot;font-weight: normal;&quot;&gt;&lt;font style=&quot;font-size: 11px;&quot;&gt;Kiểm tra vị trí không hợp lệ&lt;/font&gt;&lt;/span&gt;" style="text;html=1;align=left;verticalAlign=middle;resizable=0;points=[];autosize=1;strokeColor=none;fillColor=none;fontStyle=1" vertex="1" parent="1">
          <mxGeometry x="205" y="630" width="160" height="30" as="geometry" />
        </mxCell>
        <mxCell id="CbLxprS3W2kemAqDIkFk-68" value="&lt;span style=&quot;font-weight: normal;&quot;&gt;&lt;font style=&quot;font-size: 11px;&quot;&gt;Kiểm tra vị trí hợp lệ&lt;/font&gt;&lt;/span&gt;" style="text;html=1;align=left;verticalAlign=middle;resizable=0;points=[];autosize=1;strokeColor=none;fillColor=none;fontStyle=1" vertex="1" parent="1">
          <mxGeometry x="207" y="761" width="120" height="30" as="geometry" />
        </mxCell>
        <mxCell id="CbLxprS3W2kemAqDIkFk-71" value="&lt;span style=&quot;font-size: 11px; font-weight: 400;&quot;&gt;EXCEPTION: Lỗi hệ thống AI&lt;/span&gt;" style="text;html=1;align=left;verticalAlign=middle;resizable=0;points=[];autosize=1;strokeColor=none;fillColor=none;fontStyle=1" vertex="1" parent="1">
          <mxGeometry x="205" y="1040" width="170" height="30" as="geometry" />
        </mxCell>
        <mxCell id="CbLxprS3W2kemAqDIkFk-72" value="&lt;span style=&quot;font-size: 11px; font-weight: 400;&quot;&gt;EXCEPTION: Lỗi camera&lt;/span&gt;" style="text;html=1;align=left;verticalAlign=middle;resizable=0;points=[];autosize=1;strokeColor=none;fillColor=none;fontStyle=1" vertex="1" parent="1">
          <mxGeometry x="205" y="1210" width="150" height="30" as="geometry" />
        </mxCell>
        <mxCell id="CbLxprS3W2kemAqDIkFk-73" value="&lt;span style=&quot;font-size: 11px; font-weight: 400;&quot;&gt;EXCEPTION: Lỗi upload&lt;/span&gt;" style="text;html=1;align=left;verticalAlign=middle;resizable=0;points=[];autosize=1;strokeColor=none;fillColor=none;fontStyle=1" vertex="1" parent="1">
          <mxGeometry x="205" y="1380" width="140" height="30" as="geometry" />
        </mxCell>
        <mxCell id="CbLxprS3W2kemAqDIkFk-74" value="&lt;span style=&quot;font-size: 11px; font-weight: 400;&quot;&gt;EXCEPTION: Lỗi GPS&lt;/span&gt;" style="text;html=1;align=left;verticalAlign=middle;resizable=0;points=[];autosize=1;strokeColor=none;fillColor=none;fontStyle=1" vertex="1" parent="1">
          <mxGeometry x="207" y="1552" width="130" height="30" as="geometry" />
        </mxCell>
      </root>
    </mxGraphModel>
  </diagram>
</mxfile>
